<svg xmlns="http://www.w3.org/2000/svg" width="146.115" height="61.054" viewBox="0 0 146.115 61.054">
  <g id="Group_4734" data-name="Group 4734" transform="translate(-99.934 -124.198)">
    <g id="Group_4733" data-name="Group 4733" transform="translate(173.586 124.724)">
      <path id="Path_27346" data-name="Path 27346" d="M166.47,124.724l-24.551,60h3.307a1.576,1.576,0,0,0,1.016-.339,1.8,1.8,0,0,0,.594-.806l7.04-17.427h29.469l7.082,17.427a2.1,2.1,0,0,0,.594.827,1.471,1.471,0,0,0,.975.318h3.348l-24.55-60Zm-11.28,38.205,12.254-30.275q.3-.762.594-1.676t.594-1.93q.3,1.019.594,1.93c.2.609.4,1.152.593,1.633l12.254,30.317Z" transform="translate(-141.919 -124.724)" fill="#040405"/>
      <rect id="Rectangle_965" data-name="Rectangle 965" width="4.368" height="59.999" transform="translate(68.096 0.001)" fill="#040405"/>
    </g>
    <path id="Path_27347" data-name="Path 27347" d="M130.7,167.477,117.428,180.5l-4.057-3.854,13.277-13.211m21.39-13.393-13.46,13.393m13.46-21.466,4.426-4.4,4.057,4.038-4.426,4.4M130.7,159.4l13.277-13.211m-30.794,21.285-4.426,4.4-4.057-4.036,4.426-4.4M130.7,150.046l-13.46,13.393m13.46-21.466L143.8,128.945l4.057,4.038-13.277,13.026M113.188,159.4l13.46-13.395m16.781,8.807,13.091,13.028-4.057,4.036-13.091-13.21m-4.057-3.854-21.944-21.833,4.057-4.038,21.944,21.835m-4.057,21.285L121.853,158.67m21.576,13.395,4.426,4.586L143.8,180.5l-4.426-4.4M125.91,154.816l13.462,13.211M117.8,154.816l-13.091-13.21,4.057-4.038,13.091,13.211m26.185,16.7-17.517,17.247-8.668-8.624m21.576-38.715,17.334,17.431-8.668,8.624m-30.242-30.09,8.668-8.625,8.851,8.625m-26.185,8.624,4.609-4.588m0,34.679-17.334-17.249,8.668-8.807m34.851,17.247-13.46,13.395-4.611-4.586m13.462-30.642,13.277,13.393-4.611,4.588M125.91,137.385l4.611-4.588,4.794,4.588m-18.071,8.624,4.794-4.586m0,26.6-13.462-13.211,4.611-4.769" transform="translate(0 0)" fill="none" stroke="#040405" stroke-miterlimit="2.613" stroke-width="0.75"/>
  </g>
</svg>
