<svg xmlns="http://www.w3.org/2000/svg" width="1198.311" height="293.155" viewBox="0 0 1198.311 293.155">
  <g id="Group_4750" data-name="Group 4750" transform="translate(-56.415 -116.364)" opacity="0.1">
    <path id="Path_1" data-name="Path 1" d="M426.944,359.64V353.5c-.845-10.779-2.861-20.562-6.376-29.016-7.039-16.922-18.911-32.827-28.993-49.653-18.706-31.226-39.751-67.3-58.57-98.757-15.493-25.911-29.944-59.192-68.42-59.707-40.012-.529-53.321,33.471-67.842,58.033C150.636,252.375,56.415,409.3,56.415,409.3H99.908S189.8,256.225,234.43,178.864c5.707-9.891,17.022-22.874,30.155-22.874,19.925,0,29.895,22.82,38.85,38.494,23.983,42,47.093,82.188,69.582,122.757,7.074,12.752,21.433,29.545,11.6,46.867-6.412,11.3-19.34,10.6-37.687,10.6-.028.292-177.437,0-177.437,0V409.3h161.2s37.955,1.112,53.349-1.674C409.492,403.028,423.329,384.026,426.944,359.64Z" transform="translate(0 0)" fill="#fff"/>
    <path id="Path_2" data-name="Path 2" d="M99.743,166.238v6.142c.846,10.779,2.861,20.555,6.376,29.009,7.039,16.929,18.91,32.826,28.993,49.66,18.706,31.22,39.744,67.3,58.563,98.757,15.5,25.9,29.944,59.185,68.427,59.7,40.012.536,53.321-33.464,67.842-58.026,46.106-77.978,140.327-234.9,140.327-234.9H426.779S336.884,269.652,292.25,347.02c-5.7,9.891-17.015,22.874-30.148,22.874-19.932,0-29.9-22.82-38.849-38.5-23.983-41.993-47.093-82.181-69.583-122.75-7.074-12.759-21.433-29.545-11.6-46.867,6.411-11.3,19.333-10.61,37.687-10.61.021-.284,177.436,0,177.436,0V116.584H196s-37.955-1.112-53.349,1.668C117.195,122.855,103.358,141.858,99.743,166.238Z" transform="translate(261.944 0.003)" fill="#fff"/>
    <path id="Path_3" data-name="Path 3" d="M501.105,359.64V353.5c-.845-10.779-2.861-20.562-6.376-29.016-7.039-16.922-18.911-32.827-28.993-49.653-18.706-31.226-39.744-67.3-58.563-98.757-15.5-25.911-29.944-59.192-68.427-59.707-40.012-.529-53.321,33.471-67.842,58.033C224.8,252.375,130.576,409.3,130.576,409.3h43.493s89.9-153.075,134.529-230.436c5.707-9.891,17.015-22.874,30.148-22.874,19.932,0,29.9,22.82,38.85,38.494,23.983,42,47.093,82.188,69.583,122.757,7.081,12.752,21.432,29.545,11.6,46.867-6.412,11.3-19.334,10.6-37.688,10.6-.021.292-177.437,0-177.437,0V409.3h161.2s37.948,1.112,53.342-1.674C483.653,403.028,497.49,384.026,501.105,359.64Z" transform="translate(448.348 0)" fill="#fff"/>
    <path id="Path_4" data-name="Path 4" d="M173.9,166.238v6.142c.846,10.779,2.861,20.555,6.377,29.009,7.039,16.929,18.917,32.826,28.993,49.66,18.706,31.22,39.751,67.3,58.57,98.757,15.493,25.9,29.943,59.185,68.42,59.7,40.012.536,53.322-33.464,67.842-58.026,46.107-77.978,140.328-234.9,140.328-234.9H500.941s-89.9,153.068-134.522,230.435c-5.707,9.891-17.022,22.874-30.155,22.874-19.925,0-29.895-22.82-38.849-38.5-23.983-41.993-47.086-82.181-69.582-122.75-7.074-12.759-21.433-29.545-11.6-46.867,6.412-11.3,19.341-10.61,37.694-10.61.021-.284,177.43,0,177.43,0V116.584h-161.2s-37.955-1.112-53.349,1.668C191.356,122.855,177.519,141.858,173.9,166.238Z" transform="translate(710.293 0.003)" fill="#fff"/>
  </g>
</svg>
