<svg xmlns="http://www.w3.org/2000/svg" width="295.411" height="57.867" viewBox="0 0 295.411 57.867">
  <path id="Path_27237" data-name="Path 27237" d="M-138.183,0a1.474,1.474,0,0,0,2,0c.4-.4.32-.52,0-1s.12-.52,1-3a164.148,164.148,0,0,1,14-30c.72-1.2,3.36-6.44,6-11l5-8h1c.72-.08,7.8,0,15,0,13.76,0,16.2.12,17,1,.32.32.6.24,1,0,.64-.32.56-1.68,0-2-1.36-.96-11.76-1.24-22-1-3.84.08-7.96-.08-9,0h-1a1.044,1.044,0,0,0-1-1c-.48-.08-.44.28-1,1l-1,1h-3c-5.2.32-17,1.12-23,2a55.11,55.11,0,0,0-9,2c-.4.32-.4.84,0,1a6.727,6.727,0,0,0,3,0,143.362,143.362,0,0,1,18-3c3.92-.4,10.56-1,12-1h1l-4,7c-12.4,21.2-14.72,25.32-18,33-3.52,8.16-4.72,12.28-4,13Zm57-25c-.24-.48-.2-.48-1,0-.72.4-5,3.96-7,5-1.68.88-2.2,1.08-3,1a2.284,2.284,0,0,1-2-2v-1c-.16-2.48.48-3.68,0-4-.32-.16-.68,0-1,0-1.04,0-4.44,2-7,4a17.18,17.18,0,0,1-3,2c-.16-.16,2.08-5.04,4-8,2.4-3.76,6.12-8.24,9-12a14.48,14.48,0,0,0,2-3c.16-.72-.28-1.24-1-1-1.92.56-13.12,16.68-16,23-1.28,2.88-1.48,3.52-1,4,.16.16.76,0,1,0a35.525,35.525,0,0,0,4-3c3.12-2.4,6.36-4,7-4,.16,0,0,.88,0,2a8.661,8.661,0,0,0,1,3c.56,1.28,2.84,1.72,5,1,2.08-.72,6.92-4.08,9-6,.64-.64,1.08-.84,1-1Zm26,0c-.64.4-.96,1.2-2,2-3.68,2.96-6.16,3.84-8,4-.96.08-1.68.4-2,0-.48-.72-.04-2.08,1-4,.72-1.28,1.32-1.68,1-2a1.32,1.32,0,0,0-2,0l-1,1v-1c-.48-.96-1.88-1-3-1a6.311,6.311,0,0,0-3,1c-3.92,2.24-6,6.8-4,8,1.44.88,3.32-.2,7-3l2-1v1c0,1.2.12,1.28,1,2,1.6,1.28,3.48,1,7-1a42.889,42.889,0,0,0,7-5c.56-.56,1-.84,1-1,0-.88-.48-1.04-2,0Zm-16,4c-1.04.8-3.12,1.44-4,2-2.08,1.2-2.24,1.04-2,0,.56-2.32,5.24-6.08,7-6,.16,0-.08-.08,0,0a2.359,2.359,0,0,1,1,1c.24.8-.16,1.64-2,3Zm50-4c-.32-.72-1.76-.6-4,1-5.6,4-9.56,6.4-11,6-.56-.16-.8-2.08,0-4,.88-2.16.8-3.44,0-4-1.36-1.04-3.72.92-9,5-2.24,1.76-3.16,2.4-3,2a37.712,37.712,0,0,1,3-6c.72-.96.48-.6,0-1-.32-.32-.68-.16-1,0-1.12.56-3.68,5.24-4,7-.08.56-.32.76,0,1,.24.24.68,1,1,1,.56,0,3.84-2.16,6-4s5.6-4.32,6-4a2.533,2.533,0,0,1,0,2c-1.04,2.72-1.56,4.12-1,5,.96,1.52,3.12,1.28,6,0a41.052,41.052,0,0,0,9-6c.88-.72,2.08-1.76,2-2Zm29,0c-.32-.48-.48-.2-2,1-2.16,1.68-5.84,3.04-8,4-3.2,1.36-5.4,1.28-7,0-1.2-.96-1.2-1.84,0-2a16.367,16.367,0,0,0,5-2c1.12-.88,1.24-1.36,1-2-.64-2-4.96-1-10,3l-2,2,1-2c1.76-3.2,6.56-10.04,10-15a28.194,28.194,0,0,0,3-5,1.285,1.285,0,0,0-1-1c-.24,0,.24-.16,0,0-1.2.88-8.16,11.44-12,18-3.44,5.76-5.4,9.6-5,10,.16.16-.24,1,0,1a20.045,20.045,0,0,0,4-3c1.52-1.44,2.84-2.92,3-3s-.24.6,0,1c.56,1.04,2.48,1.52,4,2a7.744,7.744,0,0,0,6,0c2.32-.96,6.44-4,9-6,1.44-1.12,1.24-1.6,1-2Zm-17,1a15.024,15.024,0,0,1,3-2h0c.48,0,.8.52,0,1-.48.24-1.44.76-2,1C-9.143-23.68-9.5-23.68-9.183-24Zm80,22h0c.88.88,3.32.2,3-1s2.84-8.72,7-16c5.36-9.44,15.8-25.2,23-34,2.48-2.96,3.24-3.6,3-4-.64-1.04-2.12-.52-5,3-2.24,2.72-10,11.32-14,15a129.35,129.35,0,0,1-13,10c-4.72,3.04-8.96,5-12,5-2.88,0-4.6-.68-5-3-.96-5.12,6.08-18.48,14-26a9.088,9.088,0,0,0,2-3c0-.16.32.16,0,0-.48-.24-.72.04-2,1-4.56,3.44-11.2,12.36-14,19-3.2,7.6-3.04,12.8,2,14a9.629,9.629,0,0,0,5,0c6.4-1.36,15.44-7.16,26-17,1.04-.96,1.48-1.72,1-1-1.76,2.4-6.52,10-9,14a122.251,122.251,0,0,0-10,19c-1.6,3.84-1.48,4.52-1,5Zm49-24c-.4-.48-.92.72-3,2-3.52,2.16-6.36,3-9,3h-2l1-1c.72-1.84.28-2.8-1-4a4.306,4.306,0,0,0-2-1c-.64,0-.52.68-1,1-.4.24-1.76-.08-2,0s-.36,1.2-1,2c-2.56,3.12-2.84,5.64-1,7,1.04.72,1.56.48,3,0,1.04-.32,2.76-1.36,3-2a2.013,2.013,0,0,1,2-1,21,21,0,0,0,11-3c2.24-1.28,2.32-1.6,2-2Zm-17,7c-.32.4-.44.76-1,1-1.28.64-2.6.72-3,0s.12-1.48,1-3l1-1h0a11.817,11.817,0,0,0,2,2h1Zm2-4c-.16.64.16,1.92,0,2a7.617,7.617,0,0,1-2-1c-.64-.48,0-.44,0-1,0-.88.2-1.92,1-2h0C104.617-24.92,105.137-24.52,104.817-23Zm44-2c-.24-.48-.44-.4-1,0-.48.32-1.36.52-2,1-7.04,4.8-11,6.08-11,4,0-.32.52-.8,1-2a5.115,5.115,0,0,0,0-3c-.4-.88-1.12-.32-4,2-3.2,2.56-4.6,4-5,4s-.48-.88,0-2a18.613,18.613,0,0,1,1-3c.96-1.6,1.4-1.68,1-2-.8-.64-1.64-.24-3,2-1.6,2.72-1.72,5.12-1,6,1.2,1.44,2.48.8,6-2l2-2v2c-.16,1.44.68,2.92,3,3,2,.08,5.68-2.04,10-5C148.937-24.08,149.137-24.44,148.817-25Z" transform="translate(146.483 57.476)" fill="#be9f56"/>
</svg>
