<svg xmlns="http://www.w3.org/2000/svg" width="201.548" height="40" viewBox="0 0 201.548 40">
  <g id="Group_5501" data-name="Group 5501" transform="translate(-28.346 -119.229)">
    <g id="Group_5496" data-name="Group 5496" transform="translate(28.346 119.229)">
      <g id="Group_5491" data-name="Group 5491">
        <path id="Path_27425" data-name="Path 27425" d="M104.743,132.832a27.135,27.135,0,0,0-1.824-3.246c-1.176-2.041-2.5-4.4-3.683-6.454-.974-1.693-1.882-3.868-4.3-3.9-2.516-.035-3.353,2.187-4.266,3.792-2.9,5.1-8.825,15.352-8.825,15.352h2.735s5.653-10,8.46-15.06c.358-.646,1.07-1.495,1.9-1.495,1.253,0,1.881,1.491,2.443,2.516,1.508,2.745,2.961,5.372,4.375,8.023.445.834,1.348,1.93.73,3.063-.4.739-1.216.693-2.37.693,0,.019-11.159,0-11.159,0v2.26H99.09a23.8,23.8,0,0,0,3.355-.109,3.38,3.38,0,0,0,2.7-3.136v-.4A6.423,6.423,0,0,0,104.743,132.832Z" transform="translate(-34.297 -119.23)" fill="#040405"/>
        <path id="Path_27426" data-name="Path 27426" d="M28.7,120.381h12L28.509,137.4a.839.839,0,0,0-.163.488v.5H42.428v-1.151H30.188l12.158-16.979a.955.955,0,0,0,.189-.555v-.474H28.7Z" transform="translate(-28.346 -119.23)" fill="#040405"/>
        <rect id="Rectangle_970" data-name="Rectangle 970" width="1.395" height="19.159" transform="translate(18.874 0)" fill="#040405"/>
        <path id="Path_27427" data-name="Path 27427" d="M75.743,119.271a.487.487,0,0,0-.217.216L68,132.8a3.553,3.553,0,0,0-.2.4c-.059.14-.116.283-.169.427a5.465,5.465,0,0,0-.353-.812l-7.731-13.324a.476.476,0,0,0-.224-.216.919.919,0,0,0-.3-.041h-.948v19.158h1.205V122.06a7.221,7.221,0,0,0-.041-.758l7.745,13.4a.611.611,0,0,0,.542.352h.216a.592.592,0,0,0,.542-.352l7.541-13.391a7.371,7.371,0,0,0-.04.745v16.328H77V119.23H76.04A.861.861,0,0,0,75.743,119.271Z" transform="translate(-31.653 -119.23)" fill="#040405"/>
      </g>
      <g id="Group_5492" data-name="Group 5492" transform="translate(0 24.673)">
        <path id="Path_27428" data-name="Path 27428" d="M34.478,150.055H28.357l-.011-3.065H43.674v3.065H37.543v12.262H34.478Z" transform="translate(-28.346 -146.99)" fill="#040405"/>
      </g>
      <g id="Group_5493" data-name="Group 5493" transform="translate(18.507 24.673)">
        <path id="Path_27429" data-name="Path 27429" d="M49.169,146.99H64.5v3.065H49.169Zm0,6.131H64.5v3.065H49.169Zm0,9.2v-3.065H64.5v3.065Z" transform="translate(-49.169 -146.99)" fill="#040405"/>
      </g>
      <g id="Group_5494" data-name="Group 5494" transform="translate(37.014 24.673)">
        <path id="Path_27430" data-name="Path 27430" d="M85.319,159.251v3.065H75.1q-5.109,0-5.109-5.11V152.1q0-5.109,5.109-5.109H85.319v3.065h-9.8a2.172,2.172,0,0,0-2.463,2.452v4.281a2.181,2.181,0,0,0,2.473,2.463Z" transform="translate(-69.992 -146.99)" fill="#040405"/>
      </g>
      <g id="Group_5495" data-name="Group 5495" transform="translate(55.521 24.673)">
        <path id="Path_27431" data-name="Path 27431" d="M103.076,153.121V147l3.065-.01v15.327h-3.065v-6.131h-9.2v6.131H90.815V146.99H93.88v6.131Z" transform="translate(-90.815 -146.99)" fill="#040405"/>
      </g>
    </g>
    <g id="Group_5500" data-name="Group 5500" transform="translate(103.331 119.229)">
      <g id="Group_5497" data-name="Group 5497">
        <path id="Path_27432" data-name="Path 27432" d="M144.715,135.23V119.256l8-.027v40h-8v-16h-24v16h-8v-40h8v16Z" transform="translate(-112.715 -119.229)" fill="#040405"/>
      </g>
      <g id="Group_5498" data-name="Group 5498" transform="translate(43.282)">
        <path id="Path_27433" data-name="Path 27433" d="M193.412,119.229h8V145.9q0,13.334-13.334,13.332H174.748q-13.337,0-13.334-13.332V119.229h8V144.8q0,6.427,6.4,6.425h11.174q6.42,0,6.425-6.452Z" transform="translate(-161.414 -119.229)" fill="#040405"/>
      </g>
      <g id="Group_5499" data-name="Group 5499" transform="translate(86.564)">
        <path id="Path_27434" data-name="Path 27434" d="M210.112,135.231h26.666q5.335,0,5.333-4t-6.668-4H210.112v-8h26.666q13.337,0,13.334,12,0,6.664-4,8,4,1.329,4,8,0,12-13.334,12H210.112v-8h25.332q6.666,0,6.668-4t-5.333-4H210.112Z" transform="translate(-210.112 -119.229)" fill="#040405"/>
      </g>
    </g>
  </g>
</svg>
