<svg xmlns="http://www.w3.org/2000/svg" width="979.783" height="500" viewBox="0 0 979.783 500">
  <g id="Group_4760" data-name="Group 4760" transform="translate(-56.826 -98.403)" opacity="0.1">
    <g id="Group_4758" data-name="Group 4758" transform="translate(56.826 98.403)">
      <path id="Path_27382" data-name="Path 27382" d="M487.487,286.51c-6.122-15.3-16.45-29.669-25.214-44.878-16.265-28.22-34.567-60.825-50.936-89.259-13.478-23.42-26.039-53.5-59.5-53.965-34.8-.479-46.372,30.251-59,52.448-40.1,70.478-122.043,212.312-122.043,212.312h37.821s78.187-138.354,117-208.273c4.962-8.943,14.8-20.679,26.224-20.679,17.327,0,26,20.627,33.788,34.8,20.852,37.954,40.948,74.281,60.514,110.942,6.151,11.534,18.637,26.708,10.086,42.362-5.579,10.213-16.819,9.59-32.778,9.59-.023.26-154.313,0-154.313,0v31.261H409.323s33,1,46.389-1.512c22.144-4.16,34.175-21.337,37.319-43.372v-5.551C492.3,302.994,490.545,294.155,487.487,286.51Z" transform="translate(486.751 -98.403)"/>
      <path id="Path_27383" data-name="Path 27383" d="M61.7,114.317H227.6L59.076,349.691a11.481,11.481,0,0,0-2.25,6.739v6.93H251.569V347.44H82.294l168.15-234.808a13.223,13.223,0,0,0,2.619-7.674V98.4H61.7Z" transform="translate(-56.826 -98.398)"/>
      <rect id="Rectangle_968" data-name="Rectangle 968" width="19.288" height="264.957" transform="translate(261.021 0.003)"/>
      <path id="Path_27384" data-name="Path 27384" d="M364.515,98.964a6.768,6.768,0,0,0-3,2.995L257.41,286.021a48.678,48.678,0,0,0-2.718,5.527c-.814,1.933-1.593,3.906-2.343,5.9a76.074,76.074,0,0,0-4.87-11.234L140.566,101.958a6.62,6.62,0,0,0-3.093-2.995,12.949,12.949,0,0,0-4.212-.56H120.152V363.359h16.663V137.535a101.719,101.719,0,0,0-.56-10.484L243.366,312.429q2.8,4.864,7.484,4.864h3q4.864,0,7.489-4.864l104.3-185.193a100.268,100.268,0,0,0-.565,10.3V363.359h16.854V98.4H368.635A12.094,12.094,0,0,0,364.515,98.964Z" transform="translate(245.227 -98.398)"/>
    </g>
    <g id="Group_4759" data-name="Group 4759" transform="translate(56.826 467.347)">
      <path id="Path_27385" data-name="Path 27385" d="M157.723,270.4a2.116,2.116,0,0,1,1.546.629l3.618,3.9a59.535,59.535,0,0,1-8.7,7.651,54.208,54.208,0,0,1-10.276,5.8,60.349,60.349,0,0,1-12.226,3.71,75.637,75.637,0,0,1-14.627,1.316,62.238,62.238,0,0,1-24.412-4.668,54.205,54.205,0,0,1-19.023-13.213,60.863,60.863,0,0,1-12.359-20.7,78.134,78.134,0,0,1-4.443-26.991A74.491,74.491,0,0,1,61.4,201.2,60.535,60.535,0,0,1,74.262,180.51,57.4,57.4,0,0,1,94.1,167.1a66.382,66.382,0,0,1,25.5-4.754,72.01,72.01,0,0,1,12.769,1.044,58.439,58.439,0,0,1,10.824,2.983,51.05,51.05,0,0,1,9.468,4.852,72.4,72.4,0,0,1,8.689,6.7L158.536,182a2.516,2.516,0,0,1-2.262,1.09,3.9,3.9,0,0,1-2.083-.952c-.848-.635-1.916-1.419-3.214-2.354s-2.868-1.962-4.708-3.081a38.631,38.631,0,0,0-6.566-3.075,55.409,55.409,0,0,0-8.787-2.36,61.206,61.206,0,0,0-11.32-.952,55.819,55.819,0,0,0-21.469,4.039,48.113,48.113,0,0,0-16.842,11.494,52.369,52.369,0,0,0-11,18.111,68.3,68.3,0,0,0-3.947,23.875,70.579,70.579,0,0,0,3.9,24.268,52.294,52.294,0,0,0,10.778,18.071,46.829,46.829,0,0,0,16.254,11.32,52,52,0,0,0,20.339,3.941,74.305,74.305,0,0,0,12.267-.912,47.583,47.583,0,0,0,9.918-2.712,44.639,44.639,0,0,0,8.424-4.437,64.837,64.837,0,0,0,7.7-6.156,6.062,6.062,0,0,1,.854-.594A1.966,1.966,0,0,1,157.723,270.4Z" transform="translate(-56.826 -162.347)"/>
      <path id="Path_27386" data-name="Path 27386" d="M197.6,290.757h-7.155a3.123,3.123,0,0,1-2.083-.681,4.426,4.426,0,0,1-1.269-1.76l-15.123-37.227H109.018L93.982,288.316a3.846,3.846,0,0,1-1.269,1.714,3.363,3.363,0,0,1-2.169.727H83.481L135.917,162.6h9.237ZM111.822,244.2h57.427l-26.178-64.755c-.421-1.027-.848-2.187-1.269-3.485s-.842-2.671-1.264-4.12c-.421,1.448-.848,2.822-1.269,4.12s-.848,2.492-1.269,3.577Z" transform="translate(70.313 -161.15)"/>
      <path id="Path_27387" data-name="Path 27387" d="M122.762,232.793v57.964h-9.237V162.6h32.7q22.182,0,33.148,8.562t10.957,25.133a34.543,34.543,0,0,1-2.533,13.4,31.421,31.421,0,0,1-7.293,10.639,38.993,38.993,0,0,1-11.459,7.524,51.052,51.052,0,0,1-15.123,3.849,14.575,14.575,0,0,1,3.895,3.623l44.11,55.425h-8.066a5.291,5.291,0,0,1-2.487-.548,6.391,6.391,0,0,1-2.037-1.812L148.3,236.417A9.077,9.077,0,0,0,145,233.6a13.975,13.975,0,0,0-5.481-.808Zm0-6.883H145.04a52.886,52.886,0,0,0,15.267-2.037,33.019,33.019,0,0,0,11.407-5.845,25.184,25.184,0,0,0,7.108-9.151,28.549,28.549,0,0,0,2.452-12.042q0-13.674-8.972-20.287t-26.079-6.612h-23.46Z" transform="translate(213.617 -161.15)"/>
      <path id="Path_27388" data-name="Path 27388" d="M215.945,162.6v7.7H148.473v51.8h56.152v7.518H148.473v53.44h67.472v7.7h-76.8V162.6Z" transform="translate(335.81 -161.15)"/>
      <path id="Path_27389" data-name="Path 27389" d="M240.778,162.6v7.7H173.306v51.8h56.152v7.518H173.306v53.44h67.472v7.7h-76.8V162.6Z" transform="translate(454.259 -161.15)"/>
      <path id="Path_27390" data-name="Path 27390" d="M198.517,232.793v57.964H189.28V162.6h32.7q22.191,0,33.147,8.562t10.963,25.133a34.332,34.332,0,0,1-2.539,13.4,31.487,31.487,0,0,1-7.287,10.639A39.1,39.1,0,0,1,244.8,227.86a51.058,51.058,0,0,1-15.117,3.849,14.47,14.47,0,0,1,3.889,3.623l44.1,55.425h-8.049a5.282,5.282,0,0,1-2.493-.548,6.4,6.4,0,0,1-2.043-1.812l-41.029-51.98a9.122,9.122,0,0,0-3.3-2.816,14.026,14.026,0,0,0-5.487-.808Zm0-6.883H220.8a52.817,52.817,0,0,0,15.261-2.037,33.1,33.1,0,0,0,11.413-5.845,25.326,25.326,0,0,0,7.114-9.151,28.726,28.726,0,0,0,2.441-12.042q0-13.674-8.961-20.287t-26.091-6.612h-23.46Z" transform="translate(574.954 -161.15)"/>
      <path id="Path_27391" data-name="Path 27391" d="M286.15,179.374a2.555,2.555,0,0,1-2.36,1.54,5.2,5.2,0,0,1-3.041-1.679,39.246,39.246,0,0,0-12.988-7.472,40.177,40.177,0,0,0-24.083.271,25.852,25.852,0,0,0-8.9,5.435,23.079,23.079,0,0,0-5.453,7.974,24.657,24.657,0,0,0-1.858,9.514,19.431,19.431,0,0,0,2.758,10.772,24.831,24.831,0,0,0,7.3,7.241A47.049,47.049,0,0,0,247.821,218q5.764,2.034,11.834,4.027t11.84,4.4a42.6,42.6,0,0,1,10.293,6.024,27.72,27.72,0,0,1,7.3,8.92,28.308,28.308,0,0,1,2.758,13.172,41.535,41.535,0,0,1-2.758,15.175,35.365,35.365,0,0,1-8.014,12.365,37.677,37.677,0,0,1-12.861,8.291,46.732,46.732,0,0,1-17.39,3.029q-12.679,0-21.821-4.483a51.37,51.37,0,0,1-16.04-12.272l2.533-3.981a3.182,3.182,0,0,1,2.545-1.356,3.6,3.6,0,0,1,2.083,1.085c.848.727,1.875,1.61,3.081,2.671s2.666,2.2,4.356,3.433a35.95,35.95,0,0,0,5.9,3.45,41.726,41.726,0,0,0,7.709,2.665,40.839,40.839,0,0,0,9.889,1.091,37.582,37.582,0,0,0,13.605-2.308,29.746,29.746,0,0,0,10.109-6.295,26.708,26.708,0,0,0,6.306-9.468,31.529,31.529,0,0,0,2.175-11.724,20.74,20.74,0,0,0-2.764-11.188,23.954,23.954,0,0,0-7.3-7.339,47.539,47.539,0,0,0-10.294-4.933q-5.764-2-11.834-3.895T239.213,224.3a40.732,40.732,0,0,1-10.293-6.024,27.4,27.4,0,0,1-7.293-9.151q-2.77-5.47-2.775-13.721A32.4,32.4,0,0,1,221.3,183a30.814,30.814,0,0,1,7.172-10.547,35.139,35.139,0,0,1,11.649-7.339,42.432,42.432,0,0,1,15.827-2.764,47.956,47.956,0,0,1,17.91,3.168,42.94,42.94,0,0,1,14.465,9.7Z" transform="translate(687.932 -162.347)"/>
    </g>
  </g>
</svg>
