<svg xmlns="http://www.w3.org/2000/svg" width="293.93" height="237.055" viewBox="0 0 293.93 237.055">
  <g id="Group_4757" data-name="Group 4757" transform="translate(-56.693 -73.148)">
    <g id="Group_4754" data-name="Group 4754" transform="translate(56.923 73.148)">
      <path id="Path_27365" data-name="Path 27365" d="M265.647,129.491c-1.834-4.583-4.927-8.886-7.552-13.444-4.872-8.453-10.354-18.219-15.257-26.735-4.037-7.013-7.8-16.024-17.823-16.162-10.423-.145-13.89,9.059-17.673,15.709-12.011,21.108-36.555,63.591-36.555,63.591h11.328s23.419-41.439,35.044-62.383c1.486-2.679,4.433-6.194,7.855-6.194,5.19,0,7.787,6.178,10.12,10.423,6.246,11.37,12.265,22.249,18.125,33.231,1.842,3.453,5.582,8,3.021,12.687-1.671,3.061-5.038,2.872-9.818,2.872-.007.078-46.221,0-46.221,0v9.363h41.992s9.885.3,13.895-.453c6.633-1.246,10.236-6.389,11.178-12.991v-1.661A26.564,26.564,0,0,0,265.647,129.491Z" transform="translate(26.161 -73.148)"/>
      <path id="Path_27366" data-name="Path 27366" d="M58.285,77.916h49.693L57.5,148.414a3.44,3.44,0,0,0-.674,2.02v2.074h58.33V147.74h-50.7L114.819,77.41a3.961,3.961,0,0,0,.785-2.3V73.148H58.285Z" transform="translate(-56.826 -73.148)"/>
      <rect id="Rectangle_967" data-name="Rectangle 967" width="5.777" height="79.361" transform="translate(78.182)"/>
      <path id="Path_27367" data-name="Path 27367" d="M193.345,73.316a2.036,2.036,0,0,0-.9.9l-31.182,55.133A14.7,14.7,0,0,0,160.45,131q-.366.871-.7,1.766a22.757,22.757,0,0,0-1.459-3.363l-32.023-55.19a1.992,1.992,0,0,0-.926-.9,3.878,3.878,0,0,0-1.262-.168h-3.926v79.361h4.991V84.869a30.47,30.47,0,0,0-.168-3.14l32.082,55.525a2.523,2.523,0,0,0,2.241,1.459h.9a2.447,2.447,0,0,0,2.243-1.459l31.241-55.468a29.992,29.992,0,0,0-.169,3.083v67.64h5.048V73.148h-3.982A3.622,3.622,0,0,0,193.345,73.316Z" transform="translate(-10.712 -73.148)"/>
    </g>
    <g id="Group_4755" data-name="Group 4755" transform="translate(56.693 235.474)">
      <path id="Path_27368" data-name="Path 27368" d="M147.579,229.091v-1.564a25.037,25.037,0,0,0-1.566-7.4c-1.726-4.315-4.638-8.368-7.112-12.659-4.587-7.958-9.749-17.154-14.365-25.175-3.8-6.6-7.345-15.087-16.783-15.219-9.814-.136-13.079,8.53-16.641,14.792-11.309,19.878-34.42,59.88-34.42,59.88H67.359s22.052-39.021,33-58.741c1.4-2.523,4.175-5.833,7.4-5.833,4.887,0,7.333,5.817,9.529,9.814,5.881,10.706,11.55,20.951,17.068,31.291,1.735,3.252,5.255,7.533,2.845,11.947-1.574,2.881-4.744,2.7-9.246,2.7-.005.073-43.521,0-43.521,0v8.817h39.539s9.308.282,13.086-.427C143.3,240.149,146.692,235.305,147.579,229.091Z" transform="translate(-56.693 -167.076)"/>
      <path id="Path_27369" data-name="Path 27369" d="M100.021,179.79v1.564a25,25,0,0,0,1.564,7.4c1.726,4.315,4.638,8.368,7.112,12.657,4.587,7.96,9.749,17.156,14.365,25.176,3.8,6.6,7.345,15.087,16.784,15.219,9.813.137,13.077-8.532,16.641-14.792,11.309-19.878,34.419-59.88,34.419-59.88H180.239s-22.05,39.021-33,58.741c-1.4,2.521-4.175,5.831-7.395,5.831-4.889,0-7.335-5.817-9.531-9.813-5.881-10.706-11.55-20.951-17.068-31.291-1.735-3.252-5.255-7.533-2.845-11.949,1.574-2.879,4.744-2.7,9.246-2.7.005-.073,43.523,0,43.523,0v-8.817H123.63s-9.308-.282-13.084.427C104.3,168.732,100.908,173.574,100.021,179.79Z" transform="translate(-25.142 -167.076)"/>
      <path id="Path_27370" data-name="Path 27370" d="M221.74,229.091v-1.564a25.04,25.04,0,0,0-1.564-7.4c-1.726-4.315-4.639-8.368-7.112-12.659-4.588-7.958-9.75-17.154-14.366-25.175-3.8-6.6-7.345-15.087-16.783-15.219-9.814-.136-13.079,8.53-16.641,14.792-11.309,19.878-34.42,59.88-34.42,59.88h10.668s22.05-39.021,33-58.741c1.4-2.523,4.174-5.833,7.395-5.833,4.887,0,7.333,5.817,9.529,9.814,5.883,10.706,11.551,20.951,17.068,31.291,1.735,3.252,5.257,7.533,2.845,11.947-1.573,2.881-4.742,2.7-9.244,2.7-.007.073-43.523,0-43.523,0v8.817h39.539s9.31.282,13.086-.427C217.459,240.149,220.853,235.305,221.74,229.091Z" transform="translate(-2.689 -167.076)"/>
      <path id="Path_27371" data-name="Path 27371" d="M174.182,179.79v1.564a25.049,25.049,0,0,0,1.564,7.4c1.726,4.315,4.638,8.368,7.111,12.657,4.588,7.96,9.749,17.156,14.365,25.176,3.8,6.6,7.345,15.087,16.784,15.219,9.814.137,13.079-8.532,16.641-14.792,11.309-19.878,34.42-59.88,34.42-59.88H254.4s-22.05,39.021-33,58.741c-1.4,2.521-4.174,5.831-7.4,5.831-4.889,0-7.334-5.817-9.529-9.813-5.883-10.706-11.551-20.951-17.068-31.291-1.735-3.252-5.257-7.533-2.845-11.949,1.573-2.879,4.742-2.7,9.244-2.7.005-.073,43.523,0,43.523,0v-8.817H197.793s-9.31-.282-13.086.427C178.463,168.732,175.069,173.574,174.182,179.79Z" transform="translate(28.862 -167.076)"/>
    </g>
    <g id="Group_4756" data-name="Group 4756" transform="translate(56.923 178.77)">
      <path id="Path_27372" data-name="Path 27372" d="M58.993,164.229H56.826v-29.77h2.167Z" transform="translate(-56.826 -134.124)" fill="#be9f56"/>
      <path id="Path_27373" data-name="Path 27373" d="M68.823,134.533a1.006,1.006,0,0,1,.358.327L88.45,160.652q-.062-.63-.062-1.22V134.459H90.28v29.77H89.25a.912.912,0,0,1-.779-.422L69.116,137.974a11.744,11.744,0,0,1,.064,1.2v25.055H67.307v-29.77h1.052A1.193,1.193,0,0,1,68.823,134.533Z" transform="translate(-49.194 -134.124)" fill="#be9f56"/>
      <path id="Path_27374" data-name="Path 27374" d="M110.354,134.459v1.832H99.9v27.938H97.752V136.291H87.234v-1.832Z" transform="translate(-34.683 -134.124)" fill="#be9f56"/>
      <path id="Path_27375" data-name="Path 27375" d="M125.086,134.459v1.79H109.413v12.033h13.044v1.746H109.413V162.44h15.673v1.789h-17.84v-29.77Z" transform="translate(-20.11 -134.124)" fill="#be9f56"/>
      <path id="Path_27376" data-name="Path 27376" d="M127.8,150.764v13.464h-2.145v-29.77h7.594q5.153,0,7.7,1.991a6.949,6.949,0,0,1,2.546,5.838,7.973,7.973,0,0,1-.589,3.112,7.247,7.247,0,0,1-1.692,2.471,9.028,9.028,0,0,1-2.661,1.747,11.947,11.947,0,0,1-3.513.893,3.4,3.4,0,0,1,.9.842l10.245,12.875h-1.87a1.224,1.224,0,0,1-.579-.128,1.508,1.508,0,0,1-.475-.418l-9.528-12.077a2.147,2.147,0,0,0-.769-.653,3.242,3.242,0,0,0-1.272-.188Zm0-1.6h5.176a12.221,12.221,0,0,0,3.544-.474,7.634,7.634,0,0,0,2.651-1.357,5.868,5.868,0,0,0,1.652-2.124,6.664,6.664,0,0,0,.569-2.8A5.47,5.47,0,0,0,139.3,137.7a10.1,10.1,0,0,0-6.059-1.536H127.8Z" transform="translate(-6.707 -134.124)" fill="#be9f56"/>
      <path id="Path_27377" data-name="Path 27377" d="M145.814,134.533a.991.991,0,0,1,.358.327l19.271,25.792a11.92,11.92,0,0,1-.064-1.22V134.459h1.894v29.77h-1.03a.91.91,0,0,1-.779-.422l-19.354-25.833c.042.42.062.821.062,1.2v25.055H144.3v-29.77h1.053A1.178,1.178,0,0,1,145.814,134.533Z" transform="translate(6.872 -134.124)" fill="#be9f56"/>
      <path id="Path_27378" data-name="Path 27378" d="M181.859,138.221a.6.6,0,0,1-.548.358,1.231,1.231,0,0,1-.707-.389,8.844,8.844,0,0,0-1.17-.862,9.246,9.246,0,0,0-1.847-.874,9.295,9.295,0,0,0-5.592.064,5.962,5.962,0,0,0-2.069,1.262,5.393,5.393,0,0,0-1.267,1.851,5.752,5.752,0,0,0-.432,2.21,4.522,4.522,0,0,0,.641,2.5,5.774,5.774,0,0,0,1.7,1.683,11.073,11.073,0,0,0,2.392,1.168q1.338.472,2.75.937t2.748,1.02a9.885,9.885,0,0,1,2.392,1.4,6.46,6.46,0,0,1,1.7,2.072,6.579,6.579,0,0,1,.641,3.061,9.664,9.664,0,0,1-.641,3.524,8.243,8.243,0,0,1-1.861,2.872A8.757,8.757,0,0,1,177.694,164a10.873,10.873,0,0,1-4.04.705,11.4,11.4,0,0,1-5.069-1.042,11.947,11.947,0,0,1-3.724-2.852l.589-.925a.739.739,0,0,1,.589-.316.832.832,0,0,1,.484.254q.3.251.717.619c.282.247.619.512,1.011.8a8.3,8.3,0,0,0,1.369.8,9.367,9.367,0,0,0,4.087.874,8.735,8.735,0,0,0,3.161-.536,6.955,6.955,0,0,0,2.349-1.462,6.242,6.242,0,0,0,1.464-2.2,7.327,7.327,0,0,0,.506-2.727,4.788,4.788,0,0,0-.645-2.6,5.523,5.523,0,0,0-1.7-1.706,11.021,11.021,0,0,0-2.39-1.146q-1.338-.461-2.75-.906t-2.75-.987a9.5,9.5,0,0,1-2.39-1.4,6.415,6.415,0,0,1-1.7-2.124,7.063,7.063,0,0,1-.641-3.189,7.5,7.5,0,0,1,.569-2.881,7.19,7.19,0,0,1,1.664-2.452,8.171,8.171,0,0,1,2.706-1.7,9.866,9.866,0,0,1,3.678-.643,11.138,11.138,0,0,1,4.16.736,10.022,10.022,0,0,1,3.36,2.252Z" transform="translate(21.844 -134.265)" fill="#be9f56"/>
      <path id="Path_27379" data-name="Path 27379" d="M205.7,164.229h-2.167V149.966H184.9v14.263h-2.169v-29.77H184.9v13.888h18.639V134.459H205.7Z" transform="translate(34.856 -134.124)" fill="#be9f56"/>
      <path id="Path_27380" data-name="Path 27380" d="M207.405,164.229h-2.167v-29.77h2.167Z" transform="translate(51.247 -134.124)" fill="#be9f56"/>
      <path id="Path_27381" data-name="Path 27381" d="M218.229,152.237v11.992h-2.145v-29.77h7.678q5.239,0,7.9,2.3a8.166,8.166,0,0,1,2.661,6.541,8.768,8.768,0,0,1-.726,3.6,7.955,7.955,0,0,1-2.093,2.829,9.766,9.766,0,0,1-3.323,1.853,13.765,13.765,0,0,1-4.419.662Zm0-1.725h5.534a10.638,10.638,0,0,0,3.536-.546,7.8,7.8,0,0,0,2.639-1.516,6.587,6.587,0,0,0,1.663-2.283,7.055,7.055,0,0,0,.577-2.872,6.641,6.641,0,0,0-2.114-5.28q-2.115-1.851-6.3-1.851h-5.534Z" transform="translate(59.145 -134.124)" fill="#be9f56"/>
    </g>
  </g>
</svg>
