<svg xmlns="http://www.w3.org/2000/svg" width="507.04" height="81.054" viewBox="0 0 507.04 81.054">
  <g id="Group_4732" data-name="Group 4732" transform="translate(-33.935 -124.198)">
    <g id="Group_4729" data-name="Group 4729" transform="translate(33.935 124.724)">
      <path id="Path_27341" data-name="Path 27341" d="M213.971,181.52c-1.849-4.619-4.965-8.958-7.613-13.551-4.911-8.521-10.437-18.365-15.379-26.95-4.069-7.07-7.862-16.152-17.966-16.293-10.508-.146-14,9.132-17.815,15.835-12.107,21.279-36.848,64.1-36.848,64.1h11.42s23.605-41.773,35.324-62.885c1.5-2.7,4.471-6.242,7.919-6.242,5.233,0,7.85,6.228,10.2,10.506,6.3,11.46,12.366,22.429,18.271,33.5,1.858,3.483,5.628,8.064,3.046,12.792-1.684,3.083-5.078,2.9-9.9,2.9,0,.078-46.592,0-46.592,0v9.438h42.328s9.967.3,14.01-.456c6.684-1.256,10.317-6.442,11.268-13.095v-1.675A26.826,26.826,0,0,0,213.971,181.52Z" transform="translate(80.181 -124.724)" fill="#040405"/>
      <path id="Path_27342" data-name="Path 27342" d="M35.4,129.531H85.5L34.615,200.6a3.453,3.453,0,0,0-.68,2.034v2.091h58.8v-4.8H41.625l50.769-70.9a3.994,3.994,0,0,0,.79-2.317v-1.98H35.4Z" transform="translate(-33.935 -124.724)" fill="#040405"/>
      <rect id="Rectangle_963" data-name="Rectangle 963" width="5.824" height="79.999" transform="translate(78.81 0.001)" fill="#040405"/>
      <path id="Path_27343" data-name="Path 27343" d="M154.622,124.9a2.033,2.033,0,0,0-.9.9l-31.434,55.576a14.644,14.644,0,0,0-.821,1.667c-.245.583-.48,1.178-.706,1.78a23.4,23.4,0,0,0-1.47-3.391L87.007,125.8a2,2,0,0,0-.934-.9,3.862,3.862,0,0,0-1.272-.172H80.843v80h5.031V136.54a30.76,30.76,0,0,0-.167-3.163l32.338,55.971a2.548,2.548,0,0,0,2.26,1.468h.905a2.469,2.469,0,0,0,2.262-1.468l31.491-55.917a30.385,30.385,0,0,0-.169,3.109v68.184h5.087v-80h-4.012A3.612,3.612,0,0,0,154.622,124.9Z" transform="translate(29.476 -124.724)" fill="#040405"/>
    </g>
    <g id="Group_4731" data-name="Group 4731" transform="translate(444.359 124.724)">
      <g id="Group_4730" data-name="Group 4730">
        <path id="Path_27344" data-name="Path 27344" d="M279.682,204.724h-4.466a1.962,1.962,0,0,1-1.3-.423,2.793,2.793,0,0,1-.79-1.1l-9.443-23.236H224.389L215,203.2a2.4,2.4,0,0,1-.79,1.075,2.1,2.1,0,0,1-1.355.452h-4.41l32.733-80h5.767Zm-53.539-29.059h35.844l-16.338-40.423q-.4-.963-.793-2.178c-.263-.809-.529-1.667-.79-2.573q-.4,1.358-.795,2.573c-.261.811-.527,1.557-.79,2.234Z" transform="translate(-208.448 -124.724)" fill="#040405"/>
      </g>
      <rect id="Rectangle_964" data-name="Rectangle 964" width="5.824" height="79.999" transform="translate(90.793 0.001)" fill="#040405"/>
    </g>
    <path id="Path_27345" data-name="Path 27345" d="M207.314,181.728l-17.7,17.371-5.409-5.139,17.7-17.615m28.521-17.857-17.949,17.857m17.949-28.622,5.9-5.873,5.409,5.383-5.9,5.87m-28.521,17.86,17.7-17.615m-41.06,28.379-5.9,5.87-5.407-5.381,5.9-5.872m28.765-17.857-17.949,17.857m17.949-28.622,17.455-17.371,5.409,5.383-17.7,17.368m-28.521,17.86L201.9,153.1m22.373,11.743,17.458,17.371-5.409,5.381-17.458-17.613m-5.407-5.139L184.2,135.735l5.409-5.383,29.257,29.113m-5.407,28.379-17.949-17.86m28.765,17.86,5.9,6.115-5.409,5.139-5.9-5.873m-17.947-28.379,17.947,17.615M190.1,164.846l-17.455-17.613,5.407-5.383,17.458,17.615m34.913,22.262-23.358,23-11.555-11.5m28.765-51.62,23.111,23.241-11.555,11.5m-40.322-40.12,11.555-11.5,11.8,11.5m-34.913,11.5,6.148-6.117m0,46.239-23.111-23L178.549,153.1m46.467,23-17.949,17.86-6.145-6.115m17.947-40.856,17.7,17.857-6.145,6.117m-29.5-29.358,6.145-6.117,6.395,6.117m-24.1,11.5,6.392-6.115m0,35.473L177.81,164.846l6.145-6.359" transform="translate(179.87 0)" fill="none" stroke="#040405" stroke-miterlimit="2.613" stroke-width="0.75"/>
  </g>
</svg>
