<svg xmlns="http://www.w3.org/2000/svg" width="276.814" height="25" viewBox="0 0 276.814 25">
  <g id="Group_4751" data-name="Group 4751" transform="translate(-80.523 -136.204)">
    <path id="Path_27356" data-name="Path 27356" d="M98.617,136.326v.606a1.2,1.2,0,0,1-.242.706l-15.5,21.653H98.479v1.465H80.523v-.638a1.059,1.059,0,0,1,.208-.622l15.539-21.7h-15.3v-1.468Z" transform="translate(0 0.154)" fill="#161615"/>
    <path id="Path_27357" data-name="Path 27357" d="M96.032,160.756h-1.78v-24.43h1.78Z" transform="translate(17.315 0.154)" fill="#161615"/>
    <path id="Path_27358" data-name="Path 27358" d="M113.779,154.68c.068-.183.14-.366.215-.543a4.877,4.877,0,0,1,.251-.511l9.6-16.973a.646.646,0,0,1,.274-.276,1.142,1.142,0,0,1,.382-.052h1.226v24.43h-1.556V139.935a9.45,9.45,0,0,1,.052-.95l-9.615,17.077a.758.758,0,0,1-.692.448h-.276a.782.782,0,0,1-.692-.448l-9.875-17.093a9.516,9.516,0,0,1,.052.966v20.821h-1.538v-24.43h1.21a1.225,1.225,0,0,1,.389.052.638.638,0,0,1,.285.276l9.857,16.989A6.94,6.94,0,0,1,113.779,154.68Z" transform="translate(26.569 0.154)" fill="#161615"/>
    <path id="Path_27359" data-name="Path 27359" d="M141.153,148.688a14.837,14.837,0,0,1-.846,5.135,11.414,11.414,0,0,1-2.383,3.937,10.52,10.52,0,0,1-3.677,2.519,13.01,13.01,0,0,1-9.463,0,10.5,10.5,0,0,1-3.677-2.519,11.463,11.463,0,0,1-2.39-3.937,15.767,15.767,0,0,1,0-10.255,11.442,11.442,0,0,1,2.39-3.937,10.649,10.649,0,0,1,3.677-2.53,12.106,12.106,0,0,1,4.715-.9,12.245,12.245,0,0,1,4.749.891,10.512,10.512,0,0,1,3.677,2.528,11.476,11.476,0,0,1,2.383,3.946A14.782,14.782,0,0,1,141.153,148.688Zm-1.832,0a13.933,13.933,0,0,0-.708-4.595,9.83,9.83,0,0,0-1.994-3.451,8.555,8.555,0,0,0-3.1-2.169,10.441,10.441,0,0,0-4.023-.751,10.271,10.271,0,0,0-3.98.751,8.754,8.754,0,0,0-3.109,2.169,9.842,9.842,0,0,0-2.019,3.451,15.107,15.107,0,0,0,0,9.2,9.821,9.821,0,0,0,2.019,3.442,8.647,8.647,0,0,0,3.109,2.159,10.353,10.353,0,0,0,3.98.744,10.525,10.525,0,0,0,4.023-.744,8.452,8.452,0,0,0,3.1-2.159,9.808,9.808,0,0,0,1.994-3.442A13.917,13.917,0,0,0,139.321,148.688Z" transform="translate(47.09 0)" fill="#161615"/>
    <path id="Path_27360" data-name="Path 27360" d="M151.084,159.755a18.708,18.708,0,0,0,2.3-.129,12.636,12.636,0,0,0,1.924-.389,11.913,11.913,0,0,0,1.691-.631c.538-.249,1.074-.527,1.617-.837v-6.578h-4.7a.45.45,0,0,1-.319-.122.358.358,0,0,1-.129-.276v-.968h6.75v8.685a16.245,16.245,0,0,1-1.9,1.14,12.572,12.572,0,0,1-2.105.837,16.2,16.2,0,0,1-2.417.52,20.718,20.718,0,0,1-2.833.181,12.688,12.688,0,0,1-4.825-.889,10.741,10.741,0,0,1-3.747-2.521,11.378,11.378,0,0,1-2.426-3.946,15.769,15.769,0,0,1,0-10.282,11.2,11.2,0,0,1,2.453-3.937,10.79,10.79,0,0,1,3.858-2.519,13.8,13.8,0,0,1,5.085-.891,16.367,16.367,0,0,1,2.582.19,12.043,12.043,0,0,1,2.2.561,10.528,10.528,0,0,1,1.9.916,12.805,12.805,0,0,1,1.691,1.253l-.466.757a.481.481,0,0,1-.432.26.633.633,0,0,1-.294-.07,3.625,3.625,0,0,1-.751-.482,8.079,8.079,0,0,0-1.33-.8,11.148,11.148,0,0,0-2.1-.742,12.25,12.25,0,0,0-3.055-.328,11.572,11.572,0,0,0-4.3.76,9.1,9.1,0,0,0-3.272,2.175,9.623,9.623,0,0,0-2.089,3.453,13.4,13.4,0,0,0-.735,4.577,13.662,13.662,0,0,0,.742,4.645,9.921,9.921,0,0,0,2.083,3.478,8.966,8.966,0,0,0,3.211,2.184A10.9,10.9,0,0,0,151.084,159.755Z" transform="translate(73.881 0)" fill="#161615"/>
    <path id="Path_27361" data-name="Path 27361" d="M156.231,149.708v11.048h-1.759v-24.43H160.7q4.23,0,6.318,1.633a5.71,5.71,0,0,1,2.092,4.792,6.546,6.546,0,0,1-.484,2.555,6.016,6.016,0,0,1-1.391,2.028,7.457,7.457,0,0,1-2.184,1.434,9.75,9.75,0,0,1-2.883.733,2.776,2.776,0,0,1,.742.692l8.407,10.564h-1.533a1,1,0,0,1-.475-.1,1.2,1.2,0,0,1-.391-.344L161.1,150.4a1.738,1.738,0,0,0-.631-.536,2.669,2.669,0,0,0-1.045-.154Zm0-1.312h4.249a10.092,10.092,0,0,0,2.908-.389,6.276,6.276,0,0,0,2.175-1.115,4.819,4.819,0,0,0,1.357-1.743,5.474,5.474,0,0,0,.468-2.3,4.492,4.492,0,0,0-1.712-3.867,8.309,8.309,0,0,0-4.972-1.259h-4.473Z" transform="translate(93.266 0.154)" fill="#161615"/>
    <path id="Path_27362" data-name="Path 27362" d="M189.233,148.688a14.73,14.73,0,0,1-.848,5.135A11.312,11.312,0,0,1,186,157.76a10.479,10.479,0,0,1-3.677,2.519,13.01,13.01,0,0,1-9.463,0,10.54,10.54,0,0,1-3.677-2.519,11.5,11.5,0,0,1-2.39-3.937,15.806,15.806,0,0,1,0-10.255,11.477,11.477,0,0,1,2.39-3.937,10.691,10.691,0,0,1,3.677-2.53,12.106,12.106,0,0,1,4.715-.9,12.237,12.237,0,0,1,4.749.891A10.471,10.471,0,0,1,186,139.623a11.373,11.373,0,0,1,2.383,3.946A14.675,14.675,0,0,1,189.233,148.688Zm-1.832,0a13.991,13.991,0,0,0-.708-4.595,9.868,9.868,0,0,0-2-3.451,8.528,8.528,0,0,0-3.1-2.169,10.452,10.452,0,0,0-4.025-.751,10.279,10.279,0,0,0-3.98.751,8.746,8.746,0,0,0-3.107,2.169,9.88,9.88,0,0,0-2.022,3.451,15.106,15.106,0,0,0,0,9.2,9.859,9.859,0,0,0,2.022,3.442,8.639,8.639,0,0,0,3.107,2.159,10.362,10.362,0,0,0,3.98.744,10.537,10.537,0,0,0,4.025-.744,8.426,8.426,0,0,0,3.1-2.159,9.847,9.847,0,0,0,2-3.442A13.975,13.975,0,0,0,187.4,148.688Z" transform="translate(107.729 0)" fill="#161615"/>
    <path id="Path_27363" data-name="Path 27363" d="M190.993,159.5a7.729,7.729,0,0,0,3.15-.613,6.8,6.8,0,0,0,2.356-1.7,7.459,7.459,0,0,0,1.477-2.564,9.654,9.654,0,0,0,.509-3.186V136.326h1.764v15.107a10.884,10.884,0,0,1-.642,3.772,8.916,8.916,0,0,1-1.838,3.057,8.479,8.479,0,0,1-2.917,2.046,10.409,10.409,0,0,1-7.718,0,8.479,8.479,0,0,1-2.917-2.046,8.986,8.986,0,0,1-1.838-3.057,10.882,10.882,0,0,1-.64-3.772V136.326h1.777v15.091a9.77,9.77,0,0,0,.509,3.184,7.548,7.548,0,0,0,1.47,2.564,6.748,6.748,0,0,0,2.347,1.709A7.623,7.623,0,0,0,190.993,159.5Z" transform="translate(127.654 0.154)" fill="#161615"/>
    <path id="Path_27364" data-name="Path 27364" d="M198.081,150.915v9.841h-1.759v-24.43h6.3q4.3,0,6.483,1.884a6.706,6.706,0,0,1,2.182,5.368,7.208,7.208,0,0,1-.595,2.953,6.548,6.548,0,0,1-1.719,2.322,8.024,8.024,0,0,1-2.727,1.52,11.294,11.294,0,0,1-3.625.543Zm0-1.416h4.543a8.729,8.729,0,0,0,2.9-.448,6.4,6.4,0,0,0,2.166-1.244,5.411,5.411,0,0,0,1.366-1.872,5.837,5.837,0,0,0,.475-2.358,5.447,5.447,0,0,0-1.737-4.332,7.648,7.648,0,0,0-5.169-1.52h-4.543Z" transform="translate(146.048 0.154)" fill="#161615"/>
  </g>
</svg>
