<svg xmlns="http://www.w3.org/2000/svg" width="134.696" height="60" viewBox="0 0 134.696 60">
  <g id="Group_5505" data-name="Group 5505" transform="translate(-55.977 -104.005)">
    <path id="Path_27435" data-name="Path 27435" d="M172.811,122.832l9.848-7.195A16.6,16.6,0,0,0,166.769,104H107.718a3.015,3.015,0,0,0-3.03,2.993v32.159c0,.011.01.021.014.032.058-.155.118-.309.182-.459a3.872,3.872,0,0,1,.212-.431l8.108-14.333a.527.527,0,0,1,.233-.234.957.957,0,0,1,.321-.044h1.035v20.633H113.48V126.736a7.973,7.973,0,0,1,.044-.8L105.4,140.355a.637.637,0,0,1-.584.379h-.13v6.774A16.58,16.58,0,0,0,121.33,164h59.051a3.014,3.014,0,0,0,3.03-2.992V153l-10.6-7.728Zm-30.558,17.979a3.64,3.64,0,0,1-2.906,3.378,25.723,25.723,0,0,1-3.613.118H124.817v-2.435s12.015.021,12.017,0c1.243,0,2.118.049,2.553-.746.666-1.219-.306-2.4-.786-3.3-1.524-2.855-3.088-5.684-4.712-8.64-.607-1.1-1.282-2.71-2.631-2.71-.889,0-1.656.914-2.042,1.61-3.022,5.445-9.111,16.219-9.111,16.219h-2.945s6.381-11.045,9.5-16.533c.984-1.729,1.885-4.121,4.595-4.084,2.606.036,3.585,2.378,4.634,4.2,1.274,2.215,2.7,4.754,3.966,6.951a29.4,29.4,0,0,1,1.963,3.495,6.925,6.925,0,0,1,.432,2.042Z" transform="translate(-9.977)"/>
    <path id="Path_27436" data-name="Path 27436" d="M215.02,107.22l-13.66,9.98-9.258,6.764v21.1l9.964,7.264,12.954,9.444c1.647,1.235,3.534,1.647,3.534-1.749V108.971C218.554,105.985,217.009,105.574,215.02,107.22Z" transform="translate(-27.881 -0.463)"/>
    <path id="Path_27437" data-name="Path 27437" d="M143.07,139.912c-1.267-2.2-2.692-4.737-3.966-6.951-1.05-1.823-2.029-4.166-4.634-4.2-2.71-.037-3.611,2.355-4.595,4.084-3.123,5.488-9.5,16.533-9.5,16.533h2.945s6.089-10.774,9.111-16.219c.386-.7,1.153-1.61,2.042-1.61,1.349,0,2.025,1.606,2.631,2.71,1.624,2.956,3.189,5.785,4.712,8.64.479.9,1.451,2.08.786,3.3-.434.8-1.31.746-2.553.746,0,.021-12.017,0-12.017,0v2.435h10.917a25.723,25.723,0,0,0,3.613-.118,3.64,3.64,0,0,0,2.906-3.378v-.432a6.925,6.925,0,0,0-.432-2.042A29.4,29.4,0,0,0,143.07,139.912Z" transform="translate(-13.189 -5.07)" fill="#fff"/>
    <path id="Path_27438" data-name="Path 27438" d="M56.356,130H69.276l-13.124,18.33a.9.9,0,0,0-.175.525v.539H71.143v-1.24H57.96l13.094-18.285a1.031,1.031,0,0,0,.2-.6v-.51h-14.9Z" transform="translate(0 -5.07)"/>
    <rect id="Rectangle_971" data-name="Rectangle 971" width="1.502" height="20.633" transform="translate(76.304 123.688)"/>
    <path id="Path_27439" data-name="Path 27439" d="M101.675,143.384l-8.326-14.348a.519.519,0,0,0-.241-.234,1.019,1.019,0,0,0-.328-.044H91.759v20.633h1.3V131.806a7.865,7.865,0,0,0-.044-.817l8.341,14.436a.656.656,0,0,0,.583.379h.1v-1.578A5.894,5.894,0,0,0,101.675,143.384Z" transform="translate(-7.329 -5.07)"/>
    <path id="Path_27440" data-name="Path 27440" d="M105.4,145.425,113.524,131a7.973,7.973,0,0,0-.044.8v17.585h1.312V128.758h-1.035a.957.957,0,0,0-.321.044.527.527,0,0,0-.233.234L105.1,143.369a3.872,3.872,0,0,0-.212.431c-.064.15-.124.3-.182.459,0-.011-.01-.021-.014-.032V145.8h.13A.637.637,0,0,0,105.4,145.425Z" transform="translate(-9.977 -5.07)" fill="#fff"/>
    <g id="Group_5503" data-name="Group 5503" transform="translate(152.646 156.649)">
      <path id="Path_27441" data-name="Path 27441" d="M183.114,174.008v-.1a1.519,1.519,0,0,0-.1-.453,6.448,6.448,0,0,0-.436-.776c-.281-.487-.6-1.051-.88-1.543-.233-.4-.45-.924-1.028-.932-.6-.009-.8.522-1.019.906-.693,1.218-2.11,3.67-2.11,3.67h.654s1.351-2.391,2.022-3.6c.086-.154.256-.357.453-.357.3,0,.449.356.584.6.361.656.708,1.283,1.046,1.917.107.2.323.462.175.732-.1.177-.291.165-.567.165,0,0-2.667,0-2.667,0v.541h2.423a5.8,5.8,0,0,0,.8-.026A.809.809,0,0,0,183.114,174.008Z" transform="translate(-177.545 -170.209)" fill="#fff"/>
      <path id="Path_27442" data-name="Path 27442" d="M183.315,170.987v.1a1.525,1.525,0,0,0,.1.453,6.5,6.5,0,0,0,.436.775c.281.487.6,1.051.88,1.543.233.4.45.925,1.028.933.6.008.8-.523,1.019-.907.693-1.218,2.11-3.669,2.11-3.669h-.654s-1.351,2.391-2.022,3.6c-.086.155-.256.358-.453.358-.3,0-.449-.357-.584-.6-.36-.656-.708-1.283-1.046-1.917-.107-.2-.322-.461-.175-.732.1-.177.291-.165.567-.165,0,0,2.667,0,2.667,0v-.54h-2.423a5.67,5.67,0,0,0-.8.026A.808.808,0,0,0,183.315,170.987Z" transform="translate(-178.727 -170.209)" fill="#fff"/>
      <path id="Path_27443" data-name="Path 27443" d="M192.991,174.008v-.1a1.545,1.545,0,0,0-.1-.453,6.669,6.669,0,0,0-.436-.776c-.281-.487-.6-1.051-.88-1.543-.233-.4-.45-.924-1.029-.932-.6-.009-.8.522-1.019.906-.693,1.218-2.109,3.67-2.109,3.67h.654s1.351-2.391,2.021-3.6c.086-.154.256-.357.453-.357.3,0,.449.356.584.6.36.656.708,1.283,1.046,1.917.107.2.322.462.174.732-.1.177-.291.165-.566.165,0,0-2.667,0-2.667,0v.541h2.423a5.786,5.786,0,0,0,.8-.026A.809.809,0,0,0,192.991,174.008Z" transform="translate(-179.568 -170.209)" fill="#fff"/>
      <path id="Path_27444" data-name="Path 27444" d="M193.192,170.987v.1a1.551,1.551,0,0,0,.1.453,6.614,6.614,0,0,0,.436.775c.281.487.6,1.051.88,1.543.233.4.45.925,1.028.933.6.008.8-.523,1.02-.907.693-1.218,2.109-3.669,2.109-3.669h-.654s-1.351,2.391-2.022,3.6c-.085.155-.255.358-.453.358-.3,0-.449-.357-.584-.6-.36-.656-.708-1.283-1.046-1.917-.107-.2-.322-.461-.174-.732.1-.177.29-.165.566-.165,0,0,2.667,0,2.667,0v-.54h-2.423a5.659,5.659,0,0,0-.8.026A.806.806,0,0,0,193.192,170.987Z" transform="translate(-180.75 -170.209)" fill="#fff"/>
    </g>
    <g id="Group_5504" data-name="Group 5504" transform="translate(103.502 150.81)">
      <path id="Path_27445" data-name="Path 27445" d="M118.965,167.717c.017-.049.037-.1.056-.143a1.113,1.113,0,0,1,.067-.134l2.537-4.486a.159.159,0,0,1,.073-.073.278.278,0,0,1,.1-.014h.324v6.457h-.41v-5.5a2.34,2.34,0,0,1,.014-.251l-2.541,4.513a.2.2,0,0,1-.183.118h-.072a.207.207,0,0,1-.183-.118l-2.61-4.518c.009.088.014.174.014.256v5.5h-.406v-6.457h.32a.306.306,0,0,1,.1.014.159.159,0,0,1,.076.073l2.605,4.49A1.81,1.81,0,0,1,118.965,167.717Z" transform="translate(-115.743 -162.866)" fill="#fff"/>
      <path id="Path_27446" data-name="Path 27446" d="M132.34,162.866v.388h-3.4v2.611h2.829v.379h-2.829v2.692h3.4v.387h-3.869v-6.457Z" transform="translate(-118.35 -162.866)" fill="#fff"/>
      <path id="Path_27447" data-name="Path 27447" d="M141.418,162.866v.388h-3.4v2.611h2.829v.379h-2.829v2.692h3.4v.387h-3.869v-6.457Z" transform="translate(-120.209 -162.866)" fill="#fff"/>
      <path id="Path_27448" data-name="Path 27448" d="M150.637,162.866v.4H148.37v6.059H147.9v-6.059h-2.281v-.4Z" transform="translate(-121.863 -162.866)" fill="#fff"/>
    </g>
  </g>
</svg>
